<?xml version="1.0" encoding="UTF-8" standalone="no"?>
<!--part of the rodentia icon theme by sixsixfive released under CC0 (https://creativecommons.org/publicdomain/zero/1.0/) on openclipart-->
<svg xmlns="http://www.w3.org/2000/svg" xmlns:xlink="http://www.w3.org/1999/xlink" viewBox="0 0 48 48">
 <defs id="0">
  <linearGradient id="2">
   <stop id="E" stop-color="#fff"/>
   <stop id="F" offset="1" stop-color="#fff" stop-opacity="0"/>
  </linearGradient>
  <linearGradient id="3">
   <stop id="G" stop-color="#2e3436" stop-opacity="0.7"/>
   <stop id="H" offset="1" stop-color="#2e3436" stop-opacity="0"/>
  </linearGradient>
  <linearGradient id="4">
   <stop id="I" stop-color="#fff" stop-opacity="0.8"/>
   <stop id="J" offset="1" stop-color="#fff" stop-opacity="0"/>
  </linearGradient>
  <linearGradient id="5">
   <stop id="K" stop-color="#ad7fa8"/>
   <stop id="L" offset="1" stop-color="#75507b"/>
  </linearGradient>
  <linearGradient y1="12.219" x2="0" y2="115.78" id="6" xlink:href="#5" gradientUnits="userSpaceOnUse" gradientTransform="matrix(-0.4088855,0,0,0.4088855,50.168671,-2.1686713)"/>
  <linearGradient y1="14.75" x2="0" y2="113.25" id="7" xlink:href="#4" gradientUnits="userSpaceOnUse"/>
  <radialGradient cx="62.09" cy="119.29" r="51.5" id="8" xlink:href="#3" gradientUnits="userSpaceOnUse" gradientTransform="matrix(1,0,0,0.1208459,0,104.87093)"/>
  <linearGradient x1="8.266" y1="-29.381" x2="26.645" y2="30.444" id="9" xlink:href="#2" gradientUnits="userSpaceOnUse"/>
 </defs>
 <g transform="translate(0,-1.2499978)" id="1">
  <path d="m 27.232751,3.03184 0.01278,8.880482 15.563203,0 0,24.175353 -15.550425,0 0.01278,8.880485 L 5.1912682,24.051109 27.232751,3.03184 z" id="A" fill="url(#6)" stroke="#44274c" stroke-linejoin="round" stroke-width="1.064"/>
  <path d="m 58.8125,19.0625 -0.03125,15.375 c 0.0044,0.702692 -0.24739,1.40364 -0.78125,1.9375 -0.53386,0.53386 -1.234808,0.785682 -1.9375,0.78125 l -35.34375,0 0,53.6875 35.3125,0 c 0.702692,-0.0044 1.40364,0.24739 1.9375,0.78125 0.53386,0.53386 0.785682,1.234808 0.78125,1.9375 l -0.03125,15.375 47.34375,-44.8125 -47.25,-45.0625 z" transform="matrix(-0.4088855,0,0,0.4088855,50.168671,-2.1686713)" id="B" opacity="0.8" fill="none" stroke="url(#7)" stroke-width="2.921"/>
  <path d="m 113.59085,119.28618 a 51.504894,6.2241564 0 1 1 -103.009784,0 51.504894,6.2241564 0 1 1 103.009784,0 z" transform="matrix(0.4659751,0,0,0.3181261,-4.9305116,8.0718818)" id="C" opacity="0.4" fill="url(#8)"/>
  <path d="M 26.59375,4.375 6.03125,24.03125 a 0.02801984,0.02801984 0 0 0 0,0.03125 0.02801984,0.02801984 0 0 0 0,0.03125 L 11.1875,29 a 0.02801984,0.02801984 0 0 0 0.03125,0 c 10.156035,-4.484886 20.776053,-8.573238 31,-11.90625 a 0.02801984,0.02801984 0 0 0 0.03125,0 0.02801984,0.02801984 0 0 0 0,-0.03125 l 0,-4.5625 a 0.02801984,0.02801984 0 0 0 0,-0.03125 0.02801984,0.02801984 0 0 0 -0.03125,0 l -14.96875,0 c -0.312085,-0.0019 -0.56064,-0.250415 -0.5625,-0.5625 l -0.03125,-7.5 a 0.02801984,0.02801984 0 0 0 0,-0.03125 0.02801984,0.02801984 0 0 0 -0.03125,0 0.02801984,0.02801984 0 0 0 -0.03125,0 z" id="D" opacity="0.6" fill="url(#9)"/>
 </g>
</svg>
